Title                            : Drive Angry 3D
Year                             : 2011
Genre                            : Action | Fantasy | Thriller
iMDB URL                         : http://www.imdb.com/title/tt1502404/

Complete name                    : Drive.Angry.2011.BRRIP.720P.H264-ZEKTORM.mp4
Format                           : MPEG-4
Format profile                   : Base Media
Codec ID                         : isom
File size                        : 2.44 GiB
Duration                         : 1h 44mn
Overall bit rate                 : 3345 Kbps
Subtitles                        : English (Format: srt)

Video
ID                               : 1
Format                           : AVC
Format/Info                      : Advanced Video Codec
Format profile                   : High@L4.0
Format settings, CABAC           : Yes
Format settings, ReFrames        : 9 frames
Codec ID                         : avc1
Codec ID/Info                    : Advanced Video Coding
Duration                         : 1h 44mn
Bit rate mode                    : Variable
Bit rate                         : 2897 Kbps
Width                            : 1280 pixels
Height                           : 720 pixels
Display aspect ratio             : 16/9
Frame rate mode                  : Constant
Frame rate                       : 23.976 fps
Resolution                       : 24 bits
Colorimetry                      : 4:2:0
Scan type                        : Progressive
Bits/(Pixel*Frame)               : 0.131
Stream size                      : 2.12 GiB (87%)
Title                            : Video
Writing library                  : x264

Audio
ID                               : 2
Format                           : AAC
Format/Info                      : Advanced Audio Codec
Format version                   : Version 4
Format profile                   : LC
Format settings, SBR             : No
Codec ID                         : 40
Duration                         : 1h 44mn
Bit rate mode                    : Variable
Bit rate                         : 444 Kbps
Maximum bit rate                 : 578 Kbps
Channel(s)                       : 6 channels
Channel positions                : Front: L C R, Rear: L R, LFE
Sampling rate                    : 48.0 KHz
Resolution                       : 16 bits
Stream size                      : 332 MiB (13%)
Language                         : English



Screenshots:

[img]http://img851.imageshack.us/img851/701/snapda1.png[/img]

[img]http://img859.imageshack.us/img859/9907/snapda2.png[/img]

[img]http://img156.imageshack.us/img156/4281/snapda3.png[/img]

[img]http://img32.imageshack.us/img32/4430/snapda4.png[/img]

[img]http://img339.imageshack.us/img339/4248/snapda5.png[/img]

